<svg width="268.11494140624995px" height="86.002490234375px" xmlns="http://www.w3.org/2000/svg" viewBox="115.94252929687502 31.9987548828125 268.11494140624995 86.002490234375" style="background: rgba(0, 0, 0, 0);" preserveAspectRatio="xMidYMid"><defs><filter id="editing-raise" x="-100%" y="-100%" width="300%" height="300%"><feFlood flood-color="#ccc" result="flood-surface"></feFlood><feFlood flood-color="#777" result="flood-extrude"></feFlood><feMorphology operator="erode" in="SourceAlpha" radius="1" result="erode"></feMorphology><feConvolveMatrix in="erode" result="shadow" order="11,8" divisor="1" kernelMatrix="0 0 0 1 1 1 1 1 0 0 0 0 0 1 0 0 0 0 0 1 0 0 0 0 1 0 0 0 0 0 1 0 0 0 0 1 0 0 0 0 0 1 0 0 0 0 1 0 0 0 0 0 1 0 0 0 0 0 1 0 0 0 1 0 0 0 0 0 0 1 1 0 1 1 0 0 0 0 0 0 0 0 1 0 0 0 0 0"></feConvolveMatrix><feOffset dx="0" dy="4" in="shadow" result="offset"></feOffset><feGaussianBlur in="offset" stdDeviation="0.2" result="blur"></feGaussianBlur><feComposite operator="in" in="flood-extrude" in2="blur" result="extrude"></feComposite><feMorphology operator="erode" in="SourceAlpha" radius="1" result="erode2"></feMorphology><feConvolveMatrix in="erode2" result="out" order="4,4" divisor="1" kernelMatrix="0 1 1 0 1 0 0 1 1 0 0 1 0 1 1 0 "></feConvolveMatrix><feComposite operator="in" in="flood-surface" in2="out" result="text"></feComposite><feMerge><feMergeNode in="extrude"></feMergeNode><feMergeNode in="text"></feMergeNode></feMerge></filter></defs><g filter="url(#editing-raise)"><g transform="translate(159.35249361395836, 88.69999980926514)"><path d="M23.64-27.08L13.52 0L9.80 0L-0.32-27.08L4.76-27.08L8.12-17.40L8.12-17.40Q9.40-13.64 10.32-10.78L10.32-10.78L10.32-10.78Q11.24-7.92 11.72-6.40L11.72-6.40L11.72-6.40Q12.16-7.92 13.06-10.70L13.06-10.70L13.06-10.70Q13.96-13.48 15.32-17.32L15.32-17.32L18.80-27.08L23.64-27.08ZM26.08 0L26.08-27.08L30.84-27.08L30.84 0L26.08 0ZM36.44 0L36.44-27.08L36.44-27.08Q36.72-27.08 37.72-27.10L37.72-27.10L37.72-27.10Q38.72-27.12 39.96-27.12L39.96-27.12L39.96-27.12Q41.20-27.12 42.44-27.14L42.44-27.14L42.44-27.14Q43.68-27.16 44.48-27.16L44.48-27.16L44.48-27.16Q49.44-27.16 51.72-25.22L51.72-25.22L51.72-25.22Q54-23.28 54-19.76L54-19.76L54-19.76Q54-17.44 52.84-15.64L52.84-15.64L52.84-15.64Q51.68-13.84 49.04-13.04L49.04-13.04L49.04-13.04Q50.16-12.40 51.04-11.28L51.04-11.28L51.04-11.28Q51.92-10.16 52.76-8.54L52.76-8.54L52.76-8.54Q53.60-6.92 54.48-4.78L54.48-4.78L54.48-4.78Q55.36-2.64 56.52 0L56.52 0L51.36 0L51.36 0Q50-3.16 48.98-5.40L48.98-5.40L48.98-5.40Q47.96-7.64 47-9.04L47-9.04L47-9.04Q46.04-10.44 44.94-11.08L44.94-11.08L44.94-11.08Q43.84-11.72 42.36-11.72L42.36-11.72L41.20-11.72L41.20 0L36.44 0ZM41.20-23.76L41.20-15.20L44.28-15.20L44.28-15.20Q46.52-15.20 47.74-16.20L47.74-16.20L47.74-16.20Q48.96-17.20 48.96-19.16L48.96-19.16L48.96-19.16Q48.96-20.04 48.72-20.88L48.72-20.88L48.72-20.88Q48.48-21.72 47.90-22.36L47.90-22.36L47.90-22.36Q47.32-23 46.34-23.38L46.34-23.38L46.34-23.38Q45.36-23.76 43.88-23.76L43.88-23.76L41.20-23.76ZM55.40-27.08L74.28-27.08L73.68-23.48L66.96-23.48L66.96 0L62.24 0L62.24-23.48L55.40-23.48L55.40-27.08ZM77.12-27.08L81.84-27.08L81.84-10.32L81.84-10.32Q81.84-6.60 83.40-5.02L83.40-5.02L83.40-5.02Q84.96-3.44 87.64-3.44L87.64-3.44L87.64-3.44Q90.36-3.44 91.66-5.26L91.66-5.26L91.66-5.26Q92.96-7.08 92.96-10.32L92.96-10.32L92.96-27.08L97.72-27.08L97.72-9.96L97.72-9.96Q97.72-7.88 97.18-6.04L97.18-6.04L97.18-6.04Q96.64-4.20 95.40-2.80L95.40-2.80L95.40-2.80Q94.16-1.40 92.12-0.58L92.12-0.58L92.12-0.58Q90.08 0.24 87.12 0.24L87.12 0.24L87.12 0.24Q84.28 0.24 82.38-0.58L82.38-0.58L82.38-0.58Q80.48-1.40 79.30-2.80L79.30-2.80L79.30-2.80Q78.12-4.20 77.62-6.04L77.62-6.04L77.62-6.04Q77.12-7.88 77.12-9.96L77.12-9.96L77.12-27.08ZM99.12 0L109.52-27.08L113.28-27.08L123.72 0L118.64 0L116.16-7.08L106.40-7.08L103.84 0L99.12 0ZM107.68-10.60L114.92-10.60L114.92-10.60Q113.64-14.20 112.72-17.14L112.72-17.14L112.72-17.14Q111.80-20.08 111.32-21.76L111.32-21.76L111.32-21.76Q110.76-19.96 109.84-17.04L109.84-17.04L109.84-17.04Q108.92-14.12 107.68-10.60L107.68-10.60ZM126.32 0L126.32-27.08L126.32-27.08Q126.60-27.08 127.60-27.10L127.60-27.10L127.60-27.10Q128.60-27.12 129.84-27.12L129.84-27.12L129.84-27.12Q131.08-27.12 132.32-27.14L132.32-27.14L132.32-27.14Q133.56-27.16 134.36-27.16L134.36-27.16L134.36-27.16Q139.32-27.16 141.60-25.22L141.60-25.22L141.60-25.22Q143.88-23.28 143.88-19.76L143.88-19.76L143.88-19.76Q143.88-17.44 142.72-15.64L142.72-15.64L142.72-15.64Q141.56-13.84 138.92-13.04L138.92-13.04L138.92-13.04Q140.04-12.40 140.92-11.28L140.92-11.28L140.92-11.28Q141.80-10.16 142.64-8.54L142.64-8.54L142.64-8.54Q143.48-6.92 144.36-4.78L144.36-4.78L144.36-4.78Q145.24-2.64 146.40 0L146.40 0L141.24 0L141.24 0Q139.88-3.16 138.86-5.40L138.86-5.40L138.86-5.40Q137.84-7.64 136.88-9.04L136.88-9.04L136.88-9.04Q135.92-10.44 134.82-11.08L134.82-11.08L134.82-11.08Q133.72-11.72 132.24-11.72L132.24-11.72L131.08-11.72L131.08 0L126.32 0ZM131.08-23.76L131.08-15.20L134.16-15.20L134.16-15.20Q136.40-15.20 137.62-16.20L137.62-16.20L137.62-16.20Q138.84-17.20 138.84-19.16L138.84-19.16L138.84-19.16Q138.84-20.04 138.60-20.88L138.60-20.88L138.60-20.88Q138.36-21.72 137.78-22.36L137.78-22.36L137.78-22.36Q137.20-23 136.22-23.38L136.22-23.38L136.22-23.38Q135.24-23.76 133.76-23.76L133.76-23.76L131.08-23.76ZM149.28 0L149.28-27.08L154.04-27.08L154.04 0L149.28 0ZM156.64 0L167.04-27.08L170.80-27.08L181.24 0L176.16 0L173.68-7.08L163.92-7.08L161.36 0L156.64 0ZM165.20-10.60L172.44-10.60L172.44-10.60Q171.16-14.20 170.24-17.14L170.24-17.14L170.24-17.14Q169.32-20.08 168.84-21.76L168.84-21.76L168.84-21.76Q168.28-19.96 167.36-17.04L167.36-17.04L167.36-17.04Q166.44-14.12 165.20-10.60L165.20-10.60Z"></path></g></g><style>text {
  font-size: 64px;
  font-family: Arial Black;
  dominant-baseline: central;
  text-anchor: middle;
}</style></svg>